<?xml version="1.0" encoding="UTF-8" standalone="no"?>
<svg
   xmlns:dc="http://purl.org/dc/elements/1.1/"
   xmlns:cc="http://creativecommons.org/ns#"
   xmlns:rdf="http://www.w3.org/1999/02/22-rdf-syntax-ns#"
   xmlns:svg="http://www.w3.org/2000/svg"
   xmlns="http://www.w3.org/2000/svg"
   xmlns:sodipodi="http://sodipodi.sourceforge.net/DTD/sodipodi-0.dtd"
   xmlns:inkscape="http://www.inkscape.org/namespaces/inkscape"
   width="48"
   height="48"
   viewBox="0 0 48 48"
   id="svg5312"
   version="1.1"
   inkscape:version="0.91 r13725"
   sodipodi:docname="sugarfree_marker.svg">
  <metadata
     id="metadata5320">
    <rdf:RDF>
      <cc:Work
         rdf:about="">
        <dc:format>image/svg+xml</dc:format>
        <dc:type
           rdf:resource="http://purl.org/dc/dcmitype/StillImage" />
        <dc:title></dc:title>
      </cc:Work>
    </rdf:RDF>
  </metadata>
  <defs
     id="defs5318" />
  <sodipodi:namedview
     pagecolor="#ffffff"
     bordercolor="#666666"
     borderopacity="1"
     objecttolerance="10"
     gridtolerance="10"
     guidetolerance="10"
     inkscape:pageopacity="0"
     inkscape:pageshadow="2"
     inkscape:window-width="1320"
     inkscape:window-height="631"
     id="namedview5316"
     showgrid="true"
     inkscape:zoom="3.4766083"
     inkscape:cx="-8.9738405"
     inkscape:cy="32.088577"
     inkscape:window-x="0"
     inkscape:window-y="0"
     inkscape:window-maximized="0"
     inkscape:current-layer="svg5312">
    <inkscape:grid
       type="xygrid"
       id="grid5432" />
  </sodipodi:namedview>
  <path
     d="M45.5 0h-43v43h16.2l5.9 5 5.8-5h15.1z"
     id="path5314"
     style="fill:#18bc9c;opacity:0.97;fill-opacity:1" />
  <g
     id="g5388"
     transform="matrix(0.28473178,0,0,0.28473178,5.7771661,2.9277129)">
    <title
       id="title5390">Layer 1</title>
    <path
       style="fill:#ffffff"
       inkscape:connector-curvature="0"
       id="svg_2"
       d="M 64,0 C 28.71,0 0,28.71 0,64 0,99.29 28.71,128 64,128 99.29,128 128,99.29 128,64 128,28.71 99.29,0 64,0 Z m 0,122 C 49.086,122 35.472,116.338 25.185,107.056 L 39.4,92.842 34.097,89.659 20.943,102.813 C 11.661,92.527 6,78.913 6,64 6,32.019 32.019,6 64,6 78.913,6 92.526,11.661 102.813,20.943 L 88.047,35.708 93.54,38.7 107.056,25.184 C 116.338,35.472 122,49.086 122,64 c 0,31.981 -26.019,58 -58,58 z" />
    <path
       style="fill:#ffffff"
       inkscape:connector-curvature="0"
       id="svg_3"
       d="m 93.473,46.06 c 1.437,-0.782 1.437,-2.061 0,-2.842 L 66.607,28.586 c -1.436,-0.781 -3.782,-0.781 -5.217,0 l -26.867,14.63 c -1.436,0.781 -1.436,2.06 0,2.842 l 26.87,14.63 c 0.362,0.198 0.784,0.344 1.233,0.442 1.329,0.289 2.91,0.142 3.985,-0.442 L 93.473,46.06 Z" />
    <path
       style="fill:#ffffff"
       inkscape:connector-curvature="0"
       id="svg_4"
       d="m 93.468,51.99 -23.88,12.86 c -1.439,0.775 -2.615,2.745 -2.615,4.379 l 0,28.961 c 0,1.635 1.149,2.283 2.547,1.443 L 93.537,85.218 c 1.403,-0.84 2.548,-2.864 2.548,-4.498 l 0,-27.168 C 96.084,51.919 94.906,51.216 93.468,51.99 Z" />
    <path
       style="fill:#ffffff"
       inkscape:connector-curvature="0"
       id="svg_5"
       d="m 58.693,65.063 c -0.092,-0.061 -0.181,-0.129 -0.275,-0.18 L 34.531,51.99 c -1.439,-0.775 -2.615,-0.074 -2.615,1.56 l 0,27.165 c 0,1.633 1.147,3.658 2.548,4.5 l 24.021,14.412 c 1.402,0.842 2.547,0.196 2.547,-1.441 l 0,-28.92 c 0,-1.529 -1.031,-3.337 -2.339,-4.203 z" />
  </g>
</svg>
