<svg width="128" height="128" xmlns="http://www.w3.org/2000/svg">

 <g>
  <title>background</title>
  <rect fill="none" id="canvas_background" height="402" width="582" y="-1" x="-1"/>
 </g>
 <g>
  <title>Layer 1</title>
  <path stroke="#ffffff" fill="#ffffff" id="svg_2" d="m64,0c-35.29,0 -64,28.71 -64,64c0,35.29 28.71,64 64,64c35.29,0 64,-28.71 64,-64c0,-35.29 -28.71,-64 -64,-64zm0,122c-14.914,0 -28.528,-5.662 -38.815,-14.944l14.215,-14.214l-5.303,-3.183l-13.154,13.154c-9.282,-10.286 -14.943,-23.9 -14.943,-38.813c0,-31.981 26.019,-58 58,-58c14.913,0 28.526,5.661 38.813,14.943l-14.766,14.765l5.493,2.992l13.516,-13.516c9.282,10.288 14.944,23.902 14.944,38.816c0,31.981 -26.019,58 -58,58z"/>
  <path stroke="#ffffff" fill="#ffffff" id="svg_3" d="m93.473,46.06c1.437,-0.782 1.437,-2.061 0,-2.842l-26.866,-14.632c-1.436,-0.781 -3.782,-0.781 -5.217,0l-26.867,14.63c-1.436,0.781 -1.436,2.06 0,2.842l26.87,14.63c0.362,0.198 0.784,0.344 1.233,0.442c1.329,0.289 2.91,0.142 3.985,-0.442l26.862,-14.628z"/>
  <path stroke="#ffffff" fill="#ffffff" id="svg_4" d="m93.468,51.99l-23.88,12.86c-1.439,0.775 -2.615,2.745 -2.615,4.379l0,28.961c0,1.635 1.149,2.283 2.547,1.443l24.017,-14.415c1.403,-0.84 2.548,-2.864 2.548,-4.498l0,-27.168c-0.001,-1.633 -1.179,-2.336 -2.617,-1.562z"/>
  <path stroke="#ffffff" fill="#ffffff" id="svg_5" d="m58.693,65.063c-0.092,-0.061 -0.181,-0.129 -0.275,-0.18l-23.887,-12.893c-1.439,-0.775 -2.615,-0.074 -2.615,1.56l0,27.165c0,1.633 1.147,3.658 2.548,4.5l24.021,14.412c1.402,0.842 2.547,0.196 2.547,-1.441l0,-28.92c0,-1.529 -1.031,-3.337 -2.339,-4.203z"/>
 </g>
</svg>